<svg xmlns="http://www.w3.org/2000/svg" height="576pt" version="1.1" viewBox="0 0 324 576" width="324pt" preserveAspectRatio="none">
 <defs>
  <style type="text/css">
*{stroke-linecap:butt;stroke-linejoin:round;}
  </style>
 </defs>
 <g id="figure_1">
  <g id="patch_1">
   <path d="M 0 576  L 324 576  L 324 0  L 0 0  z " style="fill:#ffffff;" />
  </g>
  <g id="axes_1">
   <g id="PatchCollection_1">
    <path clip-path="url(#pd8ac2860ae)" d="M 324 0  L 273.042009 0  L 324 105.875583  z " style="fill:#fde725;fill-opacity:0.4;" />
    <path clip-path="url(#pd8ac2860ae)" d="M 273.042009 0  L 104.207982 0  L 183.634831 128.635264  z " style="fill:#a8db34;fill-opacity:0.4;" />
    <path clip-path="url(#pd8ac2860ae)" d="M 76.218058 238.65388  L 0 227.235831  L 32.993058 339.263172  z " style="fill:#1f978b;fill-opacity:0.4;" />
    <path clip-path="url(#pd8ac2860ae)" d="M 198.590475 261.619077  L 76.218058 238.65388  L 141.242109 348.120542  z " style="fill:#23a983;fill-opacity:0.4;" />
    <path clip-path="url(#pd8ac2860ae)" d="M 76.218058 238.65388  L 198.590475 261.619077  L 183.634831 128.635264  z " style="fill:#3bbb75;fill-opacity:0.4;" />
    <path clip-path="url(#pd8ac2860ae)" d="M 0 463.810651  L 45.197004 437.908429  L 32.993058 339.263172  z " style="fill:#2d718e;fill-opacity:0.4;" />
    <path clip-path="url(#pd8ac2860ae)" d="M 0 227.235831  L 0 463.810651  L 32.993058 339.263172  z " style="fill:#26828e;fill-opacity:0.4;" />
    <path clip-path="url(#pd8ac2860ae)" d="M 0 463.810651  L 21.116311 576  L 45.197004 437.908429  z " style="fill:#365c8d;fill-opacity:0.4;" />
    <path clip-path="url(#pd8ac2860ae)" d="M 107.453891 576  L 210.114099 460.244327  L 141.242109 348.120542  z " style="fill:#20928c;fill-opacity:0.4;" />
    <path clip-path="url(#pd8ac2860ae)" d="M 210.114099 460.244327  L 107.453891 576  L 183.554585 576  z " style="fill:#20938c;fill-opacity:0.4;" />
    <path clip-path="url(#pd8ac2860ae)" d="M 324 448.936584  L 276.382875 562.190174  L 324 576  z " style="fill:#70cf57;fill-opacity:0.4;" />
    <path clip-path="url(#pd8ac2860ae)" d="M 198.590475 261.619077  L 183.834742 325.91794  L 293.17149 382.394035  z " style="fill:#44bf70;fill-opacity:0.4;" />
    <path clip-path="url(#pd8ac2860ae)" d="M 183.834742 325.91794  L 210.114099 460.244327  L 293.17149 382.394035  z " style="fill:#38b977;fill-opacity:0.4;" />
    <path clip-path="url(#pd8ac2860ae)" d="M 183.834742 325.91794  L 198.590475 261.619077  L 141.242109 348.120542  z " style="fill:#29af7f;fill-opacity:0.4;" />
    <path clip-path="url(#pd8ac2860ae)" d="M 210.114099 460.244327  L 183.834742 325.91794  L 141.242109 348.120542  z " style="fill:#21a685;fill-opacity:0.4;" />
    <path clip-path="url(#pd8ac2860ae)" d="M 210.114099 460.244327  L 293.800782 426.704938  L 293.17149 382.394035  z " style="fill:#50c46a;fill-opacity:0.4;" />
    <path clip-path="url(#pd8ac2860ae)" d="M 293.800782 426.704938  L 210.114099 460.244327  L 276.382875 562.190174  z " style="fill:#44bf70;fill-opacity:0.4;" />
    <path clip-path="url(#pd8ac2860ae)" d="M 324 448.936584  L 293.800782 426.704938  L 276.382875 562.190174  z " style="fill:#69cd5b;fill-opacity:0.4;" />
    <path clip-path="url(#pd8ac2860ae)" d="M 192.299887 576  L 210.114099 460.244327  L 183.554585 576  z " style="fill:#1fa188;fill-opacity:0.4;" />
    <path clip-path="url(#pd8ac2860ae)" d="M 210.114099 460.244327  L 192.299887 576  L 276.382875 562.190174  z " style="fill:#28ae80;fill-opacity:0.4;" />
    <path clip-path="url(#pd8ac2860ae)" d="M 276.382875 562.190174  L 192.299887 576  L 324 576  z " style="fill:#42be71;fill-opacity:0.4;" />
    <path clip-path="url(#pd8ac2860ae)" d="M 54.426213 110.714943  L 0 0  L 0 49.498743  z " style="fill:#60ca60;fill-opacity:0.4;" />
    <path clip-path="url(#pd8ac2860ae)" d="M 54.426213 110.714943  L 99.224669 0  L 0 0  z " style="fill:#6ece58;fill-opacity:0.4;" />
    <path clip-path="url(#pd8ac2860ae)" d="M 45.197004 437.908429  L 52.308789 403.498598  L 32.993058 339.263172  z " style="fill:#29798e;fill-opacity:0.4;" />
    <path clip-path="url(#pd8ac2860ae)" d="M 52.308789 403.498598  L 80.504402 349.596559  L 32.993058 339.263172  z " style="fill:#26828e;fill-opacity:0.4;" />
    <path clip-path="url(#pd8ac2860ae)" d="M 80.504402 349.596559  L 52.308789 403.498598  L 141.242109 348.120542  z " style="fill:#238a8d;fill-opacity:0.4;" />
    <path clip-path="url(#pd8ac2860ae)" d="M 52.308789 403.498598  L 107.453891 576  L 141.242109 348.120542  z " style="fill:#277f8e;fill-opacity:0.4;" />
    <path clip-path="url(#pd8ac2860ae)" d="M 107.453891 576  L 52.308789 403.498598  L 45.197004 437.908429  z " style="fill:#2e6f8e;fill-opacity:0.4;" />
    <path clip-path="url(#pd8ac2860ae)" d="M 76.218058 238.65388  L 98.291368 337.744663  L 141.242109 348.120542  z " style="fill:#1f9a8a;fill-opacity:0.4;" />
    <path clip-path="url(#pd8ac2860ae)" d="M 98.291368 337.744663  L 80.504402 349.596559  L 141.242109 348.120542  z " style="fill:#20928c;fill-opacity:0.4;" />
    <path clip-path="url(#pd8ac2860ae)" d="M 72.998238 314.013116  L 76.218058 238.65388  L 32.993058 339.263172  z " style="fill:#20938c;fill-opacity:0.4;" />
    <path clip-path="url(#pd8ac2860ae)" d="M 80.504402 349.596559  L 72.998238 314.013116  L 32.993058 339.263172  z " style="fill:#238a8d;fill-opacity:0.4;" />
    <path clip-path="url(#pd8ac2860ae)" d="M 72.998238 314.013116  L 98.291368 337.744663  L 76.218058 238.65388  z " style="fill:#1f978b;fill-opacity:0.4;" />
    <path clip-path="url(#pd8ac2860ae)" d="M 98.291368 337.744663  L 72.998238 314.013116  L 80.504402 349.596559  z " style="fill:#21908d;fill-opacity:0.4;" />
    <path clip-path="url(#pd8ac2860ae)" d="M 17.697462 576  L 0 463.810651  L 0 576  z " style="fill:#3e4c8a;fill-opacity:0.4;" />
    <path clip-path="url(#pd8ac2860ae)" d="M 17.697462 576  L 21.116311 576  L 0 463.810651  z " style="fill:#3d4e8a;fill-opacity:0.4;" />
    <path clip-path="url(#pd8ac2860ae)" d="M 21.116311 576  L 95.186692 576  L 45.197004 437.908429  z " style="fill:#34608d;fill-opacity:0.4;" />
    <path clip-path="url(#pd8ac2860ae)" d="M 95.186692 576  L 107.453891 576  L 45.197004 437.908429  z " style="fill:#2e6d8e;fill-opacity:0.4;" />
    <path clip-path="url(#pd8ac2860ae)" d="M 324 120.177385  L 305.966277 387.170754  L 324 420.62793  z " style="fill:#a5db36;fill-opacity:0.4;" />
    <path clip-path="url(#pd8ac2860ae)" d="M 293.800782 426.704938  L 305.966277 387.170754  L 293.17149 382.394035  z " style="fill:#77d153;fill-opacity:0.4;" />
    <path clip-path="url(#pd8ac2860ae)" d="M 305.966277 387.170754  L 293.800782 426.704938  L 324 420.62793  z " style="fill:#7fd34e;fill-opacity:0.4;" />
    <path clip-path="url(#pd8ac2860ae)" d="M 269.730893 222.623901  L 198.590475 261.619077  L 293.17149 382.394035  z " style="fill:#67cc5c;fill-opacity:0.4;" />
    <path clip-path="url(#pd8ac2860ae)" d="M 305.966277 387.170754  L 269.730893 222.623901  L 293.17149 382.394035  z " style="fill:#7fd34e;fill-opacity:0.4;" />
    <path clip-path="url(#pd8ac2860ae)" d="M 293.800782 426.704938  L 324 422.572848  L 324 420.62793  z " style="fill:#84d44b;fill-opacity:0.4;" />
    <path clip-path="url(#pd8ac2860ae)" d="M 324 422.572848  L 293.800782 426.704938  L 324 448.936584  z " style="fill:#84d44b;fill-opacity:0.4;" />
    <path clip-path="url(#pd8ac2860ae)" d="M 76.218058 238.65388  L 63.866681 199.021259  L 0 227.235831  z " style="fill:#20a486;fill-opacity:0.4;" />
    <path clip-path="url(#pd8ac2860ae)" d="M 7.605304 127.088616  L 63.866681 199.021259  L 54.426213 110.714943  z " style="fill:#34b679;fill-opacity:0.4;" />
    <path clip-path="url(#pd8ac2860ae)" d="M 100.499992 0  L 54.426213 110.714943  L 104.207982 0  z " style="fill:#77d153;fill-opacity:0.4;" />
    <path clip-path="url(#pd8ac2860ae)" d="M 54.426213 110.714943  L 100.499992 0  L 99.224669 0  z " style="fill:#77d153;fill-opacity:0.4;" />
    <path clip-path="url(#pd8ac2860ae)" d="M 275.957768 212.106496  L 305.966277 387.170754  L 324 120.177385  z " style="fill:#aadc32;fill-opacity:0.4;" />
    <path clip-path="url(#pd8ac2860ae)" d="M 275.957768 212.106496  L 269.730893 222.623901  L 305.966277 387.170754  z " style="fill:#8bd646;fill-opacity:0.4;" />
    <path clip-path="url(#pd8ac2860ae)" d="M 198.590475 261.619077  L 223.867654 189.951717  L 183.634831 128.635264  z " style="fill:#60ca60;fill-opacity:0.4;" />
    <path clip-path="url(#pd8ac2860ae)" d="M 223.867654 189.951717  L 273.042009 0  L 183.634831 128.635264  z " style="fill:#a0da39;fill-opacity:0.4;" />
    <path clip-path="url(#pd8ac2860ae)" d="M 0 83.872242  L 54.426213 110.714943  L 0 49.498743  z " style="fill:#50c46a;fill-opacity:0.4;" />
    <path clip-path="url(#pd8ac2860ae)" d="M 0 83.872242  L 7.605304 127.088616  L 54.426213 110.714943  z " style="fill:#42be71;fill-opacity:0.4;" />
    <path clip-path="url(#pd8ac2860ae)" d="M 63.866681 199.021259  L 4.268692 207.980219  L 0 227.235831  z " style="fill:#20a486;fill-opacity:0.4;" />
    <path clip-path="url(#pd8ac2860ae)" d="M 4.268692 207.980219  L 63.866681 199.021259  L 7.605304 127.088616  z " style="fill:#27ad81;fill-opacity:0.4;" />
    <path clip-path="url(#pd8ac2860ae)" d="M 4.268692 207.980219  L 0 83.872242  L 0 227.235831  z " style="fill:#27ad81;fill-opacity:0.4;" />
    <path clip-path="url(#pd8ac2860ae)" d="M 0 83.872242  L 4.268692 207.980219  L 7.605304 127.088616  z " style="fill:#34b679;fill-opacity:0.4;" />
    <path clip-path="url(#pd8ac2860ae)" d="M 63.866681 199.021259  L 74.969922 168.241778  L 54.426213 110.714943  z " style="fill:#32b67a;fill-opacity:0.4;" />
    <path clip-path="url(#pd8ac2860ae)" d="M 104.207982 0  L 74.969922 168.241778  L 183.634831 128.635264  z " style="fill:#60ca60;fill-opacity:0.4;" />
    <path clip-path="url(#pd8ac2860ae)" d="M 54.426213 110.714943  L 74.969922 168.241778  L 104.207982 0  z " style="fill:#54c568;fill-opacity:0.4;" />
    <path clip-path="url(#pd8ac2860ae)" d="M 74.969922 168.241778  L 76.218058 238.65388  L 183.634831 128.635264  z " style="fill:#37b878;fill-opacity:0.4;" />
    <path clip-path="url(#pd8ac2860ae)" d="M 74.969922 168.241778  L 63.866681 199.021259  L 76.218058 238.65388  z " style="fill:#25ac82;fill-opacity:0.4;" />
    <path clip-path="url(#pd8ac2860ae)" d="M 275.957768 212.106496  L 324 119.553879  L 324 105.875583  z " style="fill:#dae319;fill-opacity:0.4;" />
    <path clip-path="url(#pd8ac2860ae)" d="M 324 119.553879  L 275.957768 212.106496  L 324 120.177385  z " style="fill:#d8e219;fill-opacity:0.4;" />
    <path clip-path="url(#pd8ac2860ae)" d="M 269.730893 222.623901  L 244.642511 205.986808  L 198.590475 261.619077  z " style="fill:#6ece58;fill-opacity:0.4;" />
    <path clip-path="url(#pd8ac2860ae)" d="M 244.642511 205.986808  L 223.867654 189.951717  L 198.590475 261.619077  z " style="fill:#65cb5e;fill-opacity:0.4;" />
    <path clip-path="url(#pd8ac2860ae)" d="M 275.957768 212.106496  L 244.642511 205.986808  L 269.730893 222.623901  z " style="fill:#8ed645;fill-opacity:0.4;" />
    <path clip-path="url(#pd8ac2860ae)" d="M 223.867654 189.951717  L 244.642511 205.986808  L 273.042009 0  z " style="fill:#a5db36;fill-opacity:0.4;" />
    <path clip-path="url(#pd8ac2860ae)" d="M 273.042009 0  L 244.642511 205.986808  L 324 105.875583  z " style="fill:#d2e21b;fill-opacity:0.4;" />
    <path clip-path="url(#pd8ac2860ae)" d="M 244.642511 205.986808  L 275.957768 212.106496  L 324 105.875583  z " style="fill:#b2dd2d;fill-opacity:0.4;" />
   </g>
   <g id="line2d_1">
    <path clip-path="url(#pd8ac2860ae)" d="M 63.866681 199.021259  L 76.218058 238.65388  M 7.605304 127.088616  L 63.866681 199.021259  M 4.268692 207.980219  L 63.866681 199.021259  M 4.268692 207.980219  L 7.605304 127.088616  M 244.642511 205.986808  L 223.867654 189.951717  M 275.957768 212.106496  L 244.642511 205.986808  M 98.291368 337.744663  L 76.218058 238.65388  M 54.426213 110.714943  L 63.866681 199.021259  M 54.426213 110.714943  L 7.605304 127.088616  M 141.242109 348.120542  L 76.218058 238.65388  M 141.242109 348.120542  L 210.114099 460.244327  M 141.242109 348.120542  L 98.291368 337.744663  M 183.634831 128.635264  L 223.867654 189.951717  M 183.634831 128.635264  L 76.218058 238.65388  M 305.966277 387.170754  L 275.957768 212.106496  M 74.969922 168.241778  L 76.218058 238.65388  M 74.969922 168.241778  L 63.866681 199.021259  M 74.969922 168.241778  L 54.426213 110.714943  M 74.969922 168.241778  L 183.634831 128.635264  M 276.382875 562.190174  L 210.114099 460.244327  M 80.504402 349.596559  L 98.291368 337.744663  M 80.504402 349.596559  L 141.242109 348.120542  M 72.998238 314.013116  L 76.218058 238.65388  M 72.998238 314.013116  L 98.291368 337.744663  M 72.998238 314.013116  L 80.504402 349.596559  M 269.730893 222.623901  L 244.642511 205.986808  M 269.730893 222.623901  L 275.957768 212.106496  M 269.730893 222.623901  L 305.966277 387.170754  M 32.993058 339.263172  L 76.218058 238.65388  M 32.993058 339.263172  L 80.504402 349.596559  M 32.993058 339.263172  L 72.998238 314.013116  M 293.800782 426.704938  L 210.114099 460.244327  M 293.800782 426.704938  L 305.966277 387.170754  M 293.800782 426.704938  L 276.382875 562.190174  M 45.197004 437.908429  L 32.993058 339.263172  M 293.17149 382.394035  L 210.114099 460.244327  M 293.17149 382.394035  L 305.966277 387.170754  M 293.17149 382.394035  L 269.730893 222.623901  M 293.17149 382.394035  L 293.800782 426.704938  M 52.308789 403.498598  L 141.242109 348.120542  M 52.308789 403.498598  L 80.504402 349.596559  M 52.308789 403.498598  L 32.993058 339.263172  M 52.308789 403.498598  L 45.197004 437.908429  M 183.834742 325.91794  L 210.114099 460.244327  M 183.834742 325.91794  L 141.242109 348.120542  M 183.834742 325.91794  L 293.17149 382.394035  M 198.590475 261.619077  L 223.867654 189.951717  M 198.590475 261.619077  L 76.218058 238.65388  M 198.590475 261.619077  L 244.642511 205.986808  M 198.590475 261.619077  L 141.242109 348.120542  M 198.590475 261.619077  L 183.634831 128.635264  M 198.590475 261.619077  L 269.730893 222.623901  M 198.590475 261.619077  L 293.17149 382.394035  M 198.590475 261.619077  L 183.834742 325.91794  M 324 105.875583  L 244.642511 205.986808  M 324 105.875583  L 275.957768 212.106496  M 324 422.572848  L 293.800782 426.704938  M 324 420.62793  L 305.966277 387.170754  M 324 420.62793  L 293.800782 426.704938  M 324 420.62793  L 324 422.572848  M 0 49.498743  L 54.426213 110.714943  M 0 227.235831  L 76.218058 238.65388  M 0 227.235831  L 63.866681 199.021259  M 0 227.235831  L 4.268692 207.980219  M 0 227.235831  L 32.993058 339.263172  M 0 83.872242  L 7.605304 127.088616  M 0 83.872242  L 4.268692 207.980219  M 0 83.872242  L 54.426213 110.714943  M 0 83.872242  L 0 49.498743  M 0 83.872242  L 0 227.235831  M 324 119.553879  L 275.957768 212.106496  M 324 119.553879  L 324 105.875583  M 0 463.810651  L 32.993058 339.263172  M 0 463.810651  L 45.197004 437.908429  M 0 463.810651  L 0 227.235831  M 324 448.936584  L 276.382875 562.190174  M 324 448.936584  L 293.800782 426.704938  M 324 448.936584  L 324 422.572848  M 324 120.177385  L 275.957768 212.106496  M 324 120.177385  L 305.966277 387.170754  M 324 120.177385  L 324 420.62793  M 324 120.177385  L 324 119.553879  M 17.697462 576  L 0 463.810651  M 95.186692 576  L 45.197004 437.908429  M 183.554585 576  L 210.114099 460.244327  M 104.207982 0  L 54.426213 110.714943  M 104.207982 0  L 183.634831 128.635264  M 104.207982 0  L 74.969922 168.241778  M 99.224669 0  L 54.426213 110.714943  M 21.116311 576  L 45.197004 437.908429  M 21.116311 576  L 0 463.810651  M 21.116311 576  L 17.697462 576  M 21.116311 576  L 95.186692 576  M 192.299887 576  L 210.114099 460.244327  M 192.299887 576  L 276.382875 562.190174  M 192.299887 576  L 183.554585 576  M 107.453891 576  L 210.114099 460.244327  M 107.453891 576  L 141.242109 348.120542  M 107.453891 576  L 45.197004 437.908429  M 107.453891 576  L 52.308789 403.498598  M 107.453891 576  L 95.186692 576  M 107.453891 576  L 183.554585 576  M 100.499992 0  L 54.426213 110.714943  M 100.499992 0  L 104.207982 0  M 100.499992 0  L 99.224669 0  M 273.042009 0  L 223.867654 189.951717  M 273.042009 0  L 244.642511 205.986808  M 273.042009 0  L 183.634831 128.635264  M 273.042009 0  L 324 105.875583  M 273.042009 0  L 104.207982 0  M 0 576  L 0 463.810651  M 0 576  L 17.697462 576  M 324 576  L 276.382875 562.190174  M 324 576  L 324 448.936584  M 324 576  L 192.299887 576  M 0 0  L 54.426213 110.714943  M 0 0  L 0 49.498743  M 0 0  L 99.224669 0  M 324 0  L 324 105.875583  M 324 0  L 273.042009 0  L 273.042009 0  " style="fill:none;stroke:#ffffff;stroke-linecap:square;stroke-opacity:0.5;stroke-width:0.5;" />
   </g>
   <g id="line2d_2" />
  </g>
 </g>
 <defs>
  <clipPath id="pd8ac2860ae">
   <rect height="576" width="324" x="0" y="0" />
  </clipPath>
 </defs>
</svg>