<svg xmlns="http://www.w3.org/2000/svg" height="648pt" version="1.1" viewBox="0 0 1152 648" width="1152pt" preserveAspectRatio="none">
 <defs>
  <style type="text/css">
*{stroke-linecap:butt;stroke-linejoin:round;}
  </style>
 </defs>
 <g id="figure_1">
  <g id="patch_1">
   <path d="M 0 648  L 1152 648  L 1152 0  L 0 0  z " style="fill:#ffffff;" />
  </g>
  <g id="axes_1">
   <g id="PatchCollection_1">
    <path clip-path="url(#p61c8d1d66e)" d="M 1103.697849 269.702582  L 1152 369.570745  L 1152 87.267064  z " style="fill:#c8e020;fill-opacity:0.4;" />
    <path clip-path="url(#p61c8d1d66e)" d="M 1055.189714 0  L 1081.762953 18.498529  L 1152 0  z " style="fill:#fde725;fill-opacity:0.4;" />
    <path clip-path="url(#p61c8d1d66e)" d="M 21.410048 186.094853  L 0 172.568992  L 0 194.02112  z " style="fill:#2ab07f;fill-opacity:0.4;" />
    <path clip-path="url(#p61c8d1d66e)" d="M 1080.593537 185.267926  L 1103.697849 269.702582  L 1152 87.267064  z " style="fill:#d8e219;fill-opacity:0.4;" />
    <path clip-path="url(#p61c8d1d66e)" d="M 1103.697849 269.702582  L 1080.593537 185.267926  L 1039.598396 262.480873  z " style="fill:#b8de29;fill-opacity:0.4;" />
    <path clip-path="url(#p61c8d1d66e)" d="M 1103.697849 269.702582  L 1069.057069 277.750251  L 1152 369.570745  z " style="fill:#aadc32;fill-opacity:0.4;" />
    <path clip-path="url(#p61c8d1d66e)" d="M 1069.057069 277.750251  L 1103.697849 269.702582  L 1039.598396 262.480873  z " style="fill:#aadc32;fill-opacity:0.4;" />
    <path clip-path="url(#p61c8d1d66e)" d="M 1152 493.481604  L 1137.049112 512.510681  L 1152 648  z " style="fill:#86d549;fill-opacity:0.4;" />
    <path clip-path="url(#p61c8d1d66e)" d="M 1152 18.043324  L 1081.762953 18.498529  L 1152 87.267064  z " style="fill:#fde725;fill-opacity:0.4;" />
    <path clip-path="url(#p61c8d1d66e)" d="M 1081.762953 18.498529  L 1152 18.043324  L 1152 0  z " style="fill:#fde725;fill-opacity:0.4;" />
    <path clip-path="url(#p61c8d1d66e)" d="M 809.224164 648  L 677.738683 637.285672  L 543.913315 648  z " style="fill:#1f9e89;fill-opacity:0.4;" />
    <path clip-path="url(#p61c8d1d66e)" d="M 809.224164 648  L 733.185744 611.071993  L 677.738683 637.285672  z " style="fill:#21a585;fill-opacity:0.4;" />
    <path clip-path="url(#p61c8d1d66e)" d="M 1081.762953 18.498529  L 995.851018 115.566244  L 1152 87.267064  z " style="fill:#fbe723;fill-opacity:0.4;" />
    <path clip-path="url(#p61c8d1d66e)" d="M 1152 493.481604  L 1058.984083 484.698256  L 1137.049112 512.510681  z " style="fill:#81d34d;fill-opacity:0.4;" />
    <path clip-path="url(#p61c8d1d66e)" d="M 1058.984083 484.698256  L 1043.656759 495.460166  L 1137.049112 512.510681  z " style="fill:#75d054;fill-opacity:0.4;" />
    <path clip-path="url(#p61c8d1d66e)" d="M 0 13.527089  L 167.577819 17.713284  L 0 0  z " style="fill:#7cd250;fill-opacity:0.4;" />
    <path clip-path="url(#p61c8d1d66e)" d="M 167.577819 17.713284  L 281.577055 9.670195  L 0 0  z " style="fill:#81d34d;fill-opacity:0.4;" />
    <path clip-path="url(#p61c8d1d66e)" d="M 81.234177 270.79362  L 57.251734 348.175565  L 200.250469 351.123266  z " style="fill:#20928c;fill-opacity:0.4;" />
    <path clip-path="url(#p61c8d1d66e)" d="M 57.251734 348.175565  L 81.234177 270.79362  L 0 317.068101  z " style="fill:#20938c;fill-opacity:0.4;" />
    <path clip-path="url(#p61c8d1d66e)" d="M 916.150484 624.002348  L 836.064321 567.094159  L 838.016887 648  z " style="fill:#32b67a;fill-opacity:0.4;" />
    <path clip-path="url(#p61c8d1d66e)" d="M 836.064321 567.094159  L 689.777486 504.118474  L 733.185744 611.071993  z " style="fill:#23a983;fill-opacity:0.4;" />
    <path clip-path="url(#p61c8d1d66e)" d="M 0 447.749222  L 0 610.785632  L 146.627195 531.83419  z " style="fill:#34608d;fill-opacity:0.4;" />
    <path clip-path="url(#p61c8d1d66e)" d="M 0 447.749222  L 205.646675 485.543741  L 0 436.11282  z " style="fill:#2c728e;fill-opacity:0.4;" />
    <path clip-path="url(#p61c8d1d66e)" d="M 205.646675 485.543741  L 164.22519 521.079472  L 314.652037 537.455404  z " style="fill:#2d708e;fill-opacity:0.4;" />
    <path clip-path="url(#p61c8d1d66e)" d="M 164.22519 521.079472  L 0 447.749222  L 146.627195 531.83419  z " style="fill:#306a8e;fill-opacity:0.4;" />
    <path clip-path="url(#p61c8d1d66e)" d="M 0 447.749222  L 164.22519 521.079472  L 205.646675 485.543741  z " style="fill:#2e6e8e;fill-opacity:0.4;" />
    <path clip-path="url(#p61c8d1d66e)" d="M 1057.395708 141.371777  L 1080.593537 185.267926  L 1152 87.267064  z " style="fill:#e5e419;fill-opacity:0.4;" />
    <path clip-path="url(#p61c8d1d66e)" d="M 995.851018 115.566244  L 1057.395708 141.371777  L 1152 87.267064  z " style="fill:#e7e419;fill-opacity:0.4;" />
    <path clip-path="url(#p61c8d1d66e)" d="M 1057.395708 141.371777  L 995.851018 115.566244  L 1080.593537 185.267926  z " style="fill:#d2e21b;fill-opacity:0.4;" />
    <path clip-path="url(#p61c8d1d66e)" d="M 919.019644 40.985223  L 1081.762953 18.498529  L 1055.189714 0  z " style="fill:#fde725;fill-opacity:0.4;" />
    <path clip-path="url(#p61c8d1d66e)" d="M 919.019644 40.985223  L 995.851018 115.566244  L 1081.762953 18.498529  z " style="fill:#efe51c;fill-opacity:0.4;" />
    <path clip-path="url(#p61c8d1d66e)" d="M 1137.049112 512.510681  L 997.331536 648  L 1152 648  z " style="fill:#70cf57;fill-opacity:0.4;" />
    <path clip-path="url(#p61c8d1d66e)" d="M 26.306171 56.283645  L 0 13.527089  L 0 53.837603  z " style="fill:#69cd5b;fill-opacity:0.4;" />
    <path clip-path="url(#p61c8d1d66e)" d="M 26.306171 56.283645  L 167.577819 17.713284  L 0 13.527089  z " style="fill:#73d056;fill-opacity:0.4;" />
    <path clip-path="url(#p61c8d1d66e)" d="M 0 172.568992  L 26.306171 56.283645  L 0 53.837603  z " style="fill:#4ec36b;fill-opacity:0.4;" />
    <path clip-path="url(#p61c8d1d66e)" d="M 441.208047 573.597321  L 371.636373 468.349477  L 314.652037 537.455404  z " style="fill:#277e8e;fill-opacity:0.4;" />
    <path clip-path="url(#p61c8d1d66e)" d="M 371.636373 468.349477  L 205.646675 485.543741  L 314.652037 537.455404  z " style="fill:#29798e;fill-opacity:0.4;" />
    <path clip-path="url(#p61c8d1d66e)" d="M 205.646675 485.543741  L 294.30596 391.178218  L 200.250469 351.123266  z " style="fill:#25848e;fill-opacity:0.4;" />
    <path clip-path="url(#p61c8d1d66e)" d="M 269.018537 338.972659  L 81.234177 270.79362  L 200.250469 351.123266  z " style="fill:#1f948c;fill-opacity:0.4;" />
    <path clip-path="url(#p61c8d1d66e)" d="M 294.30596 391.178218  L 269.018537 338.972659  L 200.250469 351.123266  z " style="fill:#21908d;fill-opacity:0.4;" />
    <path clip-path="url(#p61c8d1d66e)" d="M 343.413102 257.658296  L 269.018537 338.972659  L 470.268314 332.395825  z " style="fill:#1fa188;fill-opacity:0.4;" />
    <path clip-path="url(#p61c8d1d66e)" d="M 490.379719 299.023239  L 343.413102 257.658296  L 470.268314 332.395825  z " style="fill:#22a884;fill-opacity:0.4;" />
    <path clip-path="url(#p61c8d1d66e)" d="M 828.1838 427.729616  L 689.777486 504.118474  L 885.168774 511.68883  z " style="fill:#2fb47c;fill-opacity:0.4;" />
    <path clip-path="url(#p61c8d1d66e)" d="M 689.777486 504.118474  L 828.1838 427.729616  L 777.108172 394.575334  z " style="fill:#2eb37c;fill-opacity:0.4;" />
    <path clip-path="url(#p61c8d1d66e)" d="M 689.777486 504.118474  L 578.797712 589.814088  L 733.185744 611.071993  z " style="fill:#1f9e89;fill-opacity:0.4;" />
    <path clip-path="url(#p61c8d1d66e)" d="M 733.185744 611.071993  L 578.797712 589.814088  L 677.738683 637.285672  z " style="fill:#1e9c89;fill-opacity:0.4;" />
    <path clip-path="url(#p61c8d1d66e)" d="M 677.738683 637.285672  L 578.797712 589.814088  L 543.913315 648  z " style="fill:#20938c;fill-opacity:0.4;" />
    <path clip-path="url(#p61c8d1d66e)" d="M 578.797712 589.814088  L 551.941914 600.406122  L 543.913315 648  z " style="fill:#218f8d;fill-opacity:0.4;" />
    <path clip-path="url(#p61c8d1d66e)" d="M 475.33056 385.138193  L 538.958856 482.540384  L 777.108172 394.575334  z " style="fill:#20a386;fill-opacity:0.4;" />
    <path clip-path="url(#p61c8d1d66e)" d="M 689.777486 504.118474  L 538.958856 482.540384  L 569.781096 500.202148  z " style="fill:#1e9b8a;fill-opacity:0.4;" />
    <path clip-path="url(#p61c8d1d66e)" d="M 538.958856 482.540384  L 689.777486 504.118474  L 777.108172 394.575334  z " style="fill:#21a685;fill-opacity:0.4;" />
    <path clip-path="url(#p61c8d1d66e)" d="M 538.958856 482.540384  L 475.33056 385.138193  L 399.215468 420.056398  z " style="fill:#1f948c;fill-opacity:0.4;" />
    <path clip-path="url(#p61c8d1d66e)" d="M 371.636373 468.349477  L 538.958856 482.540384  L 399.215468 420.056398  z " style="fill:#228d8d;fill-opacity:0.4;" />
    <path clip-path="url(#p61c8d1d66e)" d="M 538.958856 482.540384  L 441.208047 573.597321  L 569.781096 500.202148  z " style="fill:#218f8d;fill-opacity:0.4;" />
    <path clip-path="url(#p61c8d1d66e)" d="M 538.958856 482.540384  L 371.636373 468.349477  L 441.208047 573.597321  z " style="fill:#23888e;fill-opacity:0.4;" />
    <path clip-path="url(#p61c8d1d66e)" d="M 560.712795 324.070219  L 490.379719 299.023239  L 470.268314 332.395825  z " style="fill:#24aa83;fill-opacity:0.4;" />
    <path clip-path="url(#p61c8d1d66e)" d="M 490.379719 299.023239  L 560.712795 324.070219  L 550.40828 297.888043  z " style="fill:#28ae80;fill-opacity:0.4;" />
    <path clip-path="url(#p61c8d1d66e)" d="M 560.712795 324.070219  L 777.108172 394.575334  L 657.389615 302.397019  z " style="fill:#31b57b;fill-opacity:0.4;" />
    <path clip-path="url(#p61c8d1d66e)" d="M 560.712795 324.070219  L 475.33056 385.138193  L 777.108172 394.575334  z " style="fill:#25ab82;fill-opacity:0.4;" />
    <path clip-path="url(#p61c8d1d66e)" d="M 983.488315 374.838317  L 917.818287 368.062543  L 956.429588 458.779061  z " style="fill:#60ca60;fill-opacity:0.4;" />
    <path clip-path="url(#p61c8d1d66e)" d="M 777.108172 394.575334  L 844.056125 348.787506  L 657.389615 302.397019  z " style="fill:#3fbc73;fill-opacity:0.4;" />
    <path clip-path="url(#p61c8d1d66e)" d="M 828.1838 427.729616  L 844.056125 348.787506  L 777.108172 394.575334  z " style="fill:#42be71;fill-opacity:0.4;" />
    <path clip-path="url(#p61c8d1d66e)" d="M 844.056125 348.787506  L 828.1838 427.729616  L 917.818287 368.062543  z " style="fill:#4ec36b;fill-opacity:0.4;" />
    <path clip-path="url(#p61c8d1d66e)" d="M 769.924879 614.136368  L 809.224164 648  L 838.016887 648  z " style="fill:#27ad81;fill-opacity:0.4;" />
    <path clip-path="url(#p61c8d1d66e)" d="M 836.064321 567.094159  L 769.924879 614.136368  L 838.016887 648  z " style="fill:#29af7f;fill-opacity:0.4;" />
    <path clip-path="url(#p61c8d1d66e)" d="M 769.924879 614.136368  L 733.185744 611.071993  L 809.224164 648  z " style="fill:#24aa83;fill-opacity:0.4;" />
    <path clip-path="url(#p61c8d1d66e)" d="M 769.924879 614.136368  L 836.064321 567.094159  L 733.185744 611.071993  z " style="fill:#25ac82;fill-opacity:0.4;" />
    <path clip-path="url(#p61c8d1d66e)" d="M 850.387664 557.070324  L 836.064321 567.094159  L 916.150484 624.002348  z " style="fill:#34b679;fill-opacity:0.4;" />
    <path clip-path="url(#p61c8d1d66e)" d="M 689.777486 504.118474  L 850.387664 557.070324  L 885.168774 511.68883  z " style="fill:#2db27d;fill-opacity:0.4;" />
    <path clip-path="url(#p61c8d1d66e)" d="M 836.064321 567.094159  L 850.387664 557.070324  L 689.777486 504.118474  z " style="fill:#29af7f;fill-opacity:0.4;" />
    <path clip-path="url(#p61c8d1d66e)" d="M 376.770014 611.451738  L 441.208047 573.597321  L 314.652037 537.455404  z " style="fill:#29798e;fill-opacity:0.4;" />
    <path clip-path="url(#p61c8d1d66e)" d="M 279.999015 614.501072  L 376.770014 611.451738  L 314.652037 537.455404  z " style="fill:#2c718e;fill-opacity:0.4;" />
    <path clip-path="url(#p61c8d1d66e)" d="M 919.019644 40.985223  L 849.590421 103.456978  L 995.851018 115.566244  z " style="fill:#cde11d;fill-opacity:0.4;" />
    <path clip-path="url(#p61c8d1d66e)" d="M 995.851018 115.566244  L 846.191344 147.374081  L 1080.593537 185.267926  z " style="fill:#bddf26;fill-opacity:0.4;" />
    <path clip-path="url(#p61c8d1d66e)" d="M 1080.593537 185.267926  L 846.191344 147.374081  L 1039.598396 262.480873  z " style="fill:#addc30;fill-opacity:0.4;" />
    <path clip-path="url(#p61c8d1d66e)" d="M 846.191344 147.374081  L 787.053048 226.854517  L 1039.598396 262.480873  z " style="fill:#8bd646;fill-opacity:0.4;" />
    <path clip-path="url(#p61c8d1d66e)" d="M 849.590421 103.456978  L 846.191344 147.374081  L 995.851018 115.566244  z " style="fill:#b5de2b;fill-opacity:0.4;" />
    <path clip-path="url(#p61c8d1d66e)" d="M 904.403427 648  L 916.150484 624.002348  L 838.016887 648  z " style="fill:#37b878;fill-opacity:0.4;" />
    <path clip-path="url(#p61c8d1d66e)" d="M 904.403427 648  L 997.331536 648  L 916.150484 624.002348  z " style="fill:#42be71;fill-opacity:0.4;" />
    <path clip-path="url(#p61c8d1d66e)" d="M 1043.656759 495.460166  L 966.523264 532.254757  L 1137.049112 512.510681  z " style="fill:#69cd5b;fill-opacity:0.4;" />
    <path clip-path="url(#p61c8d1d66e)" d="M 966.523264 532.254757  L 997.331536 648  L 1137.049112 512.510681  z " style="fill:#60ca60;fill-opacity:0.4;" />
    <path clip-path="url(#p61c8d1d66e)" d="M 997.331536 648  L 966.523264 532.254757  L 916.150484 624.002348  z " style="fill:#48c16e;fill-opacity:0.4;" />
    <path clip-path="url(#p61c8d1d66e)" d="M 966.523264 532.254757  L 956.429588 458.779061  L 885.168774 511.68883  z " style="fill:#4ac16d;fill-opacity:0.4;" />
    <path clip-path="url(#p61c8d1d66e)" d="M 966.523264 532.254757  L 1043.656759 495.460166  L 956.429588 458.779061  z " style="fill:#5ac864;fill-opacity:0.4;" />
    <path clip-path="url(#p61c8d1d66e)" d="M 850.387664 557.070324  L 966.523264 532.254757  L 885.168774 511.68883  z " style="fill:#3fbc73;fill-opacity:0.4;" />
    <path clip-path="url(#p61c8d1d66e)" d="M 966.523264 532.254757  L 850.387664 557.070324  L 916.150484 624.002348  z " style="fill:#3dbc74;fill-opacity:0.4;" />
    <path clip-path="url(#p61c8d1d66e)" d="M 1055.587334 396.763276  L 983.488315 374.838317  L 956.429588 458.779061  z " style="fill:#6ccd5a;fill-opacity:0.4;" />
    <path clip-path="url(#p61c8d1d66e)" d="M 1152 485.031152  L 1058.984083 484.698256  L 1152 493.481604  z " style="fill:#84d44b;fill-opacity:0.4;" />
    <path clip-path="url(#p61c8d1d66e)" d="M 1152 485.031152  L 1152 477.499117  L 1058.984083 484.698256  z " style="fill:#84d44b;fill-opacity:0.4;" />
    <path clip-path="url(#p61c8d1d66e)" d="M 191.76029 75.369854  L 0 172.568992  L 21.410048 186.094853  z " style="fill:#38b977;fill-opacity:0.4;" />
    <path clip-path="url(#p61c8d1d66e)" d="M 191.76029 75.369854  L 26.306171 56.283645  L 0 172.568992  z " style="fill:#4cc26c;fill-opacity:0.4;" />
    <path clip-path="url(#p61c8d1d66e)" d="M 26.306171 56.283645  L 191.76029 75.369854  L 167.577819 17.713284  z " style="fill:#67cc5c;fill-opacity:0.4;" />
    <path clip-path="url(#p61c8d1d66e)" d="M 434.666993 2.219899  L 573.375079 0  L 0 0  z " style="fill:#93d741;fill-opacity:0.4;" />
    <path clip-path="url(#p61c8d1d66e)" d="M 281.577055 9.670195  L 434.666993 2.219899  L 0 0  z " style="fill:#89d548;fill-opacity:0.4;" />
    <path clip-path="url(#p61c8d1d66e)" d="M 0 323.14061  L 57.251734 348.175565  L 0 317.068101  z " style="fill:#218f8d;fill-opacity:0.4;" />
    <path clip-path="url(#p61c8d1d66e)" d="M 0 323.14061  L 0 403.354268  L 57.251734 348.175565  z " style="fill:#23888e;fill-opacity:0.4;" />
    <path clip-path="url(#p61c8d1d66e)" d="M 57.251734 348.175565  L 0 404.956831  L 200.250469 351.123266  z " style="fill:#24878e;fill-opacity:0.4;" />
    <path clip-path="url(#p61c8d1d66e)" d="M 0 403.354268  L 0 404.956831  L 57.251734 348.175565  z " style="fill:#26828e;fill-opacity:0.4;" />
    <path clip-path="url(#p61c8d1d66e)" d="M 0 404.956831  L 205.646675 485.543741  L 200.250469 351.123266  z " style="fill:#277e8e;fill-opacity:0.4;" />
    <path clip-path="url(#p61c8d1d66e)" d="M 205.646675 485.543741  L 0 404.956831  L 0 436.11282  z " style="fill:#2b758e;fill-opacity:0.4;" />
    <path clip-path="url(#p61c8d1d66e)" d="M 0 266.170618  L 16.018981 266.386365  L 0 194.02112  z " style="fill:#20a386;fill-opacity:0.4;" />
    <path clip-path="url(#p61c8d1d66e)" d="M 16.018981 266.386365  L 21.410048 186.094853  L 0 194.02112  z " style="fill:#23a983;fill-opacity:0.4;" />
    <path clip-path="url(#p61c8d1d66e)" d="M 16.018981 266.386365  L 81.234177 270.79362  L 21.410048 186.094853  z " style="fill:#20a386;fill-opacity:0.4;" />
    <path clip-path="url(#p61c8d1d66e)" d="M 355.373759 442.014582  L 371.636373 468.349477  L 399.215468 420.056398  z " style="fill:#23898e;fill-opacity:0.4;" />
    <path clip-path="url(#p61c8d1d66e)" d="M 294.30596 391.178218  L 355.373759 442.014582  L 399.215468 420.056398  z " style="fill:#228b8d;fill-opacity:0.4;" />
    <path clip-path="url(#p61c8d1d66e)" d="M 371.636373 468.349477  L 355.373759 442.014582  L 205.646675 485.543741  z " style="fill:#27808e;fill-opacity:0.4;" />
    <path clip-path="url(#p61c8d1d66e)" d="M 355.373759 442.014582  L 294.30596 391.178218  L 205.646675 485.543741  z " style="fill:#26828e;fill-opacity:0.4;" />
    <path clip-path="url(#p61c8d1d66e)" d="M 470.243175 147.812691  L 462.561527 162.894239  L 535.382981 125.691849  z " style="fill:#58c765;fill-opacity:0.4;" />
    <path clip-path="url(#p61c8d1d66e)" d="M 342.345216 111.362536  L 462.561527 162.894239  L 470.243175 147.812691  z " style="fill:#52c569;fill-opacity:0.4;" />
    <path clip-path="url(#p61c8d1d66e)" d="M 490.379719 299.023239  L 438.741973 234.096158  L 343.413102 257.658296  z " style="fill:#27ad81;fill-opacity:0.4;" />
    <path clip-path="url(#p61c8d1d66e)" d="M 438.741973 234.096158  L 339.758836 248.358043  L 343.413102 257.658296  z " style="fill:#27ad81;fill-opacity:0.4;" />
    <path clip-path="url(#p61c8d1d66e)" d="M 339.758836 248.358043  L 438.741973 234.096158  L 289.144353 219.978788  z " style="fill:#29af7f;fill-opacity:0.4;" />
    <path clip-path="url(#p61c8d1d66e)" d="M 438.741973 234.096158  L 462.561527 162.894239  L 289.144353 219.978788  z " style="fill:#35b779;fill-opacity:0.4;" />
    <path clip-path="url(#p61c8d1d66e)" d="M 917.818287 368.062543  L 876.138265 447.113942  L 956.429588 458.779061  z " style="fill:#52c569;fill-opacity:0.4;" />
    <path clip-path="url(#p61c8d1d66e)" d="M 828.1838 427.729616  L 876.138265 447.113942  L 917.818287 368.062543  z " style="fill:#4ac16d;fill-opacity:0.4;" />
    <path clip-path="url(#p61c8d1d66e)" d="M 956.429588 458.779061  L 876.138265 447.113942  L 885.168774 511.68883  z " style="fill:#48c16e;fill-opacity:0.4;" />
    <path clip-path="url(#p61c8d1d66e)" d="M 876.138265 447.113942  L 828.1838 427.729616  L 885.168774 511.68883  z " style="fill:#3fbc73;fill-opacity:0.4;" />
    <path clip-path="url(#p61c8d1d66e)" d="M 565.174026 563.296196  L 689.777486 504.118474  L 569.781096 500.202148  z " style="fill:#1f998a;fill-opacity:0.4;" />
    <path clip-path="url(#p61c8d1d66e)" d="M 565.174026 563.296196  L 578.797712 589.814088  L 689.777486 504.118474  z " style="fill:#1f988b;fill-opacity:0.4;" />
    <path clip-path="url(#p61c8d1d66e)" d="M 441.208047 573.597321  L 565.174026 563.296196  L 569.781096 500.202148  z " style="fill:#218e8d;fill-opacity:0.4;" />
    <path clip-path="url(#p61c8d1d66e)" d="M 469.163433 342.688218  L 560.712795 324.070219  L 470.268314 332.395825  z " style="fill:#22a785;fill-opacity:0.4;" />
    <path clip-path="url(#p61c8d1d66e)" d="M 560.712795 324.070219  L 469.163433 342.688218  L 475.33056 385.138193  z " style="fill:#20a486;fill-opacity:0.4;" />
    <path clip-path="url(#p61c8d1d66e)" d="M 269.018537 338.972659  L 469.163433 342.688218  L 470.268314 332.395825  z " style="fill:#1f9e89;fill-opacity:0.4;" />
    <path clip-path="url(#p61c8d1d66e)" d="M 469.163433 342.688218  L 269.018537 338.972659  L 294.30596 391.178218  z " style="fill:#1f968b;fill-opacity:0.4;" />
    <path clip-path="url(#p61c8d1d66e)" d="M 475.33056 385.138193  L 469.163433 342.688218  L 399.215468 420.056398  z " style="fill:#1f9a8a;fill-opacity:0.4;" />
    <path clip-path="url(#p61c8d1d66e)" d="M 469.163433 342.688218  L 294.30596 391.178218  L 399.215468 420.056398  z " style="fill:#1f948c;fill-opacity:0.4;" />
    <path clip-path="url(#p61c8d1d66e)" d="M 584.276111 308.38093  L 560.712795 324.070219  L 657.389615 302.397019  z " style="fill:#2eb37c;fill-opacity:0.4;" />
    <path clip-path="url(#p61c8d1d66e)" d="M 560.712795 324.070219  L 584.276111 308.38093  L 550.40828 297.888043  z " style="fill:#2ab07f;fill-opacity:0.4;" />
    <path clip-path="url(#p61c8d1d66e)" d="M 644.693121 250.622052  L 584.276111 308.38093  L 657.389615 302.397019  z " style="fill:#38b977;fill-opacity:0.4;" />
    <path clip-path="url(#p61c8d1d66e)" d="M 584.276111 308.38093  L 644.693121 250.622052  L 550.40828 297.888043  z " style="fill:#34b679;fill-opacity:0.4;" />
    <path clip-path="url(#p61c8d1d66e)" d="M 1069.057069 277.750251  L 1047.373561 285.147797  L 1152 369.570745  z " style="fill:#a2da37;fill-opacity:0.4;" />
    <path clip-path="url(#p61c8d1d66e)" d="M 1047.373561 285.147797  L 1069.057069 277.750251  L 1039.598396 262.480873  z " style="fill:#a2da37;fill-opacity:0.4;" />
    <path clip-path="url(#p61c8d1d66e)" d="M 983.488315 374.838317  L 1047.373561 285.147797  L 917.818287 368.062543  z " style="fill:#77d153;fill-opacity:0.4;" />
    <path clip-path="url(#p61c8d1d66e)" d="M 1047.373561 285.147797  L 844.056125 348.787506  L 917.818287 368.062543  z " style="fill:#6ece58;fill-opacity:0.4;" />
    <path clip-path="url(#p61c8d1d66e)" d="M 844.056125 348.787506  L 814.411095 263.756598  L 657.389615 302.397019  z " style="fill:#4ec36b;fill-opacity:0.4;" />
    <path clip-path="url(#p61c8d1d66e)" d="M 814.411095 263.756598  L 644.693121 250.622052  L 657.389615 302.397019  z " style="fill:#4ac16d;fill-opacity:0.4;" />
    <path clip-path="url(#p61c8d1d66e)" d="M 644.693121 250.622052  L 814.411095 263.756598  L 787.053048 226.854517  z " style="fill:#5cc863;fill-opacity:0.4;" />
    <path clip-path="url(#p61c8d1d66e)" d="M 787.053048 226.854517  L 814.411095 263.756598  L 1039.598396 262.480873  z " style="fill:#7ad151;fill-opacity:0.4;" />
    <path clip-path="url(#p61c8d1d66e)" d="M 814.411095 263.756598  L 1047.373561 285.147797  L 1039.598396 262.480873  z " style="fill:#8bd646;fill-opacity:0.4;" />
    <path clip-path="url(#p61c8d1d66e)" d="M 1047.373561 285.147797  L 814.411095 263.756598  L 844.056125 348.787506  z " style="fill:#70cf57;fill-opacity:0.4;" />
    <path clip-path="url(#p61c8d1d66e)" d="M 532.427267 593.561497  L 450.625773 648  L 543.913315 648  z " style="fill:#24878e;fill-opacity:0.4;" />
    <path clip-path="url(#p61c8d1d66e)" d="M 551.941914 600.406122  L 532.427267 593.561497  L 543.913315 648  z " style="fill:#228c8d;fill-opacity:0.4;" />
    <path clip-path="url(#p61c8d1d66e)" d="M 532.427267 593.561497  L 565.174026 563.296196  L 441.208047 573.597321  z " style="fill:#238a8d;fill-opacity:0.4;" />
    <path clip-path="url(#p61c8d1d66e)" d="M 578.797712 589.814088  L 532.427267 593.561497  L 551.941914 600.406122  z " style="fill:#218f8d;fill-opacity:0.4;" />
    <path clip-path="url(#p61c8d1d66e)" d="M 565.174026 563.296196  L 532.427267 593.561497  L 578.797712 589.814088  z " style="fill:#21908d;fill-opacity:0.4;" />
    <path clip-path="url(#p61c8d1d66e)" d="M 364.816536 648  L 279.999015 614.501072  L 294.302082 648  z " style="fill:#2e6e8e;fill-opacity:0.4;" />
    <path clip-path="url(#p61c8d1d66e)" d="M 364.816536 648  L 376.770014 611.451738  L 279.999015 614.501072  z " style="fill:#2c718e;fill-opacity:0.4;" />
    <path clip-path="url(#p61c8d1d66e)" d="M 450.625773 648  L 426.265548 620.700082  L 423.111081 648  z " style="fill:#277e8e;fill-opacity:0.4;" />
    <path clip-path="url(#p61c8d1d66e)" d="M 426.265548 620.700082  L 364.816536 648  L 423.111081 648  z " style="fill:#297a8e;fill-opacity:0.4;" />
    <path clip-path="url(#p61c8d1d66e)" d="M 364.816536 648  L 426.265548 620.700082  L 376.770014 611.451738  z " style="fill:#2a788e;fill-opacity:0.4;" />
    <path clip-path="url(#p61c8d1d66e)" d="M 376.770014 611.451738  L 426.265548 620.700082  L 441.208047 573.597321  z " style="fill:#287c8e;fill-opacity:0.4;" />
    <path clip-path="url(#p61c8d1d66e)" d="M 426.265548 620.700082  L 532.427267 593.561497  L 441.208047 573.597321  z " style="fill:#25838e;fill-opacity:0.4;" />
    <path clip-path="url(#p61c8d1d66e)" d="M 532.427267 593.561497  L 426.265548 620.700082  L 450.625773 648  z " style="fill:#26828e;fill-opacity:0.4;" />
    <path clip-path="url(#p61c8d1d66e)" d="M 0 610.785632  L 115.65831 594.985519  L 146.627195 531.83419  z " style="fill:#39568c;fill-opacity:0.4;" />
    <path clip-path="url(#p61c8d1d66e)" d="M 223.215194 648  L 115.65831 594.985519  L 127.67708 648  z " style="fill:#38598c;fill-opacity:0.4;" />
    <path clip-path="url(#p61c8d1d66e)" d="M 6.266729 625.407267  L 115.65831 594.985519  L 0 610.785632  z " style="fill:#3e4c8a;fill-opacity:0.4;" />
    <path clip-path="url(#p61c8d1d66e)" d="M 115.65831 594.985519  L 6.266729 625.407267  L 127.67708 648  z " style="fill:#3c4f8a;fill-opacity:0.4;" />
    <path clip-path="url(#p61c8d1d66e)" d="M 606.717033 50.373778  L 434.666993 2.219899  L 535.382981 125.691849  z " style="fill:#89d548;fill-opacity:0.4;" />
    <path clip-path="url(#p61c8d1d66e)" d="M 434.666993 2.219899  L 606.717033 50.373778  L 573.375079 0  z " style="fill:#a2da37;fill-opacity:0.4;" />
    <path clip-path="url(#p61c8d1d66e)" d="M 1072.891316 384.639682  L 1152 477.499117  L 1152 369.570745  z " style="fill:#93d741;fill-opacity:0.4;" />
    <path clip-path="url(#p61c8d1d66e)" d="M 1072.891316 384.639682  L 1055.587334 396.763276  L 1152 477.499117  z " style="fill:#89d548;fill-opacity:0.4;" />
    <path clip-path="url(#p61c8d1d66e)" d="M 1047.373561 285.147797  L 1072.891316 384.639682  L 1152 369.570745  z " style="fill:#98d83e;fill-opacity:0.4;" />
    <path clip-path="url(#p61c8d1d66e)" d="M 1055.587334 396.763276  L 1072.891316 384.639682  L 983.488315 374.838317  z " style="fill:#7cd250;fill-opacity:0.4;" />
    <path clip-path="url(#p61c8d1d66e)" d="M 1072.891316 384.639682  L 1047.373561 285.147797  L 983.488315 374.838317  z " style="fill:#86d549;fill-opacity:0.4;" />
    <path clip-path="url(#p61c8d1d66e)" d="M 1152 477.499117  L 1056.913324 477.65569  L 1058.984083 484.698256  z " style="fill:#7ad151;fill-opacity:0.4;" />
    <path clip-path="url(#p61c8d1d66e)" d="M 1055.587334 396.763276  L 1056.913324 477.65569  L 1152 477.499117  z " style="fill:#7fd34e;fill-opacity:0.4;" />
    <path clip-path="url(#p61c8d1d66e)" d="M 1056.913324 477.65569  L 1055.587334 396.763276  L 956.429588 458.779061  z " style="fill:#6ccd5a;fill-opacity:0.4;" />
    <path clip-path="url(#p61c8d1d66e)" d="M 1043.656759 495.460166  L 1056.913324 477.65569  L 956.429588 458.779061  z " style="fill:#65cb5e;fill-opacity:0.4;" />
    <path clip-path="url(#p61c8d1d66e)" d="M 1058.984083 484.698256  L 1056.913324 477.65569  L 1043.656759 495.460166  z " style="fill:#6ece58;fill-opacity:0.4;" />
    <path clip-path="url(#p61c8d1d66e)" d="M 191.76029 75.369854  L 261.459817 184.020855  L 342.345216 111.362536  z " style="fill:#4ac16d;fill-opacity:0.4;" />
    <path clip-path="url(#p61c8d1d66e)" d="M 462.561527 162.894239  L 261.459817 184.020855  L 289.144353 219.978788  z " style="fill:#35b779;fill-opacity:0.4;" />
    <path clip-path="url(#p61c8d1d66e)" d="M 261.459817 184.020855  L 462.561527 162.894239  L 342.345216 111.362536  z " style="fill:#44bf70;fill-opacity:0.4;" />
    <path clip-path="url(#p61c8d1d66e)" d="M 261.459817 184.020855  L 191.76029 75.369854  L 21.410048 186.094853  z " style="fill:#3aba76;fill-opacity:0.4;" />
    <path clip-path="url(#p61c8d1d66e)" d="M 434.666993 2.219899  L 361.25654 72.446376  L 535.382981 125.691849  z " style="fill:#7ad151;fill-opacity:0.4;" />
    <path clip-path="url(#p61c8d1d66e)" d="M 361.25654 72.446376  L 470.243175 147.812691  L 535.382981 125.691849  z " style="fill:#60ca60;fill-opacity:0.4;" />
    <path clip-path="url(#p61c8d1d66e)" d="M 361.25654 72.446376  L 342.345216 111.362536  L 470.243175 147.812691  z " style="fill:#5cc863;fill-opacity:0.4;" />
    <path clip-path="url(#p61c8d1d66e)" d="M 0 280.157087  L 16.018981 266.386365  L 0 266.170618  z " style="fill:#1e9d89;fill-opacity:0.4;" />
    <path clip-path="url(#p61c8d1d66e)" d="M 81.234177 270.79362  L 0 280.157087  L 0 317.068101  z " style="fill:#1f988b;fill-opacity:0.4;" />
    <path clip-path="url(#p61c8d1d66e)" d="M 16.018981 266.386365  L 0 280.157087  L 81.234177 270.79362  z " style="fill:#1e9c89;fill-opacity:0.4;" />
    <path clip-path="url(#p61c8d1d66e)" d="M 478.17909 234.467739  L 490.379719 299.023239  L 550.40828 297.888043  z " style="fill:#2cb17e;fill-opacity:0.4;" />
    <path clip-path="url(#p61c8d1d66e)" d="M 478.17909 234.467739  L 438.741973 234.096158  L 490.379719 299.023239  z " style="fill:#2db27d;fill-opacity:0.4;" />
    <path clip-path="url(#p61c8d1d66e)" d="M 644.693121 250.622052  L 478.17909 234.467739  L 550.40828 297.888043  z " style="fill:#37b878;fill-opacity:0.4;" />
    <path clip-path="url(#p61c8d1d66e)" d="M 438.741973 234.096158  L 478.17909 234.467739  L 462.561527 162.894239  z " style="fill:#3aba76;fill-opacity:0.4;" />
    <path clip-path="url(#p61c8d1d66e)" d="M 127.67708 648  L 0 643.748718  L 0 648  z " style="fill:#404688;fill-opacity:0.4;" />
    <path clip-path="url(#p61c8d1d66e)" d="M 6.266729 625.407267  L 0 643.748718  L 127.67708 648  z " style="fill:#3f4788;fill-opacity:0.4;" />
    <path clip-path="url(#p61c8d1d66e)" d="M 0 643.748718  L 6.266729 625.407267  L 0 610.785632  z " style="fill:#404688;fill-opacity:0.4;" />
    <path clip-path="url(#p61c8d1d66e)" d="M 279.999015 614.501072  L 224.26883 648  L 294.302082 648  z " style="fill:#31688e;fill-opacity:0.4;" />
    <path clip-path="url(#p61c8d1d66e)" d="M 223.215194 648  L 224.26883 648  L 279.999015 614.501072  z " style="fill:#32648e;fill-opacity:0.4;" />
    <path clip-path="url(#p61c8d1d66e)" d="M 160.082002 575.224945  L 279.999015 614.501072  L 314.652037 537.455404  z " style="fill:#306a8e;fill-opacity:0.4;" />
    <path clip-path="url(#p61c8d1d66e)" d="M 160.082002 575.224945  L 223.215194 648  L 279.999015 614.501072  z " style="fill:#33628d;fill-opacity:0.4;" />
    <path clip-path="url(#p61c8d1d66e)" d="M 160.082002 575.224945  L 115.65831 594.985519  L 223.215194 648  z " style="fill:#365c8d;fill-opacity:0.4;" />
    <path clip-path="url(#p61c8d1d66e)" d="M 930.294412 0  L 919.019644 40.985223  L 1055.189714 0  z " style="fill:#fbe723;fill-opacity:0.4;" />
    <path clip-path="url(#p61c8d1d66e)" d="M 930.294412 0  L 923.540966 0  L 919.019644 40.985223  z " style="fill:#f1e51d;fill-opacity:0.4;" />
    <path clip-path="url(#p61c8d1d66e)" d="M 838.971317 28.897353  L 923.540966 0  L 757.91408 0  z " style="fill:#e2e418;fill-opacity:0.4;" />
    <path clip-path="url(#p61c8d1d66e)" d="M 923.540966 0  L 838.971317 28.897353  L 919.019644 40.985223  z " style="fill:#e7e419;fill-opacity:0.4;" />
    <path clip-path="url(#p61c8d1d66e)" d="M 838.971317 28.897353  L 849.590421 103.456978  L 919.019644 40.985223  z " style="fill:#d0e11c;fill-opacity:0.4;" />
    <path clip-path="url(#p61c8d1d66e)" d="M 261.459817 184.020855  L 261.635525 220.400063  L 289.144353 219.978788  z " style="fill:#2ab07f;fill-opacity:0.4;" />
    <path clip-path="url(#p61c8d1d66e)" d="M 269.018537 338.972659  L 261.635525 220.400063  L 81.234177 270.79362  z " style="fill:#1f9f88;fill-opacity:0.4;" />
    <path clip-path="url(#p61c8d1d66e)" d="M 81.234177 270.79362  L 261.635525 220.400063  L 21.410048 186.094853  z " style="fill:#22a884;fill-opacity:0.4;" />
    <path clip-path="url(#p61c8d1d66e)" d="M 261.635525 220.400063  L 261.459817 184.020855  L 21.410048 186.094853  z " style="fill:#2ab07f;fill-opacity:0.4;" />
    <path clip-path="url(#p61c8d1d66e)" d="M 261.635525 220.400063  L 269.018537 338.972659  L 343.413102 257.658296  z " style="fill:#20a486;fill-opacity:0.4;" />
    <path clip-path="url(#p61c8d1d66e)" d="M 261.635525 220.400063  L 339.758836 248.358043  L 289.144353 219.978788  z " style="fill:#27ad81;fill-opacity:0.4;" />
    <path clip-path="url(#p61c8d1d66e)" d="M 339.758836 248.358043  L 261.635525 220.400063  L 343.413102 257.658296  z " style="fill:#25ac82;fill-opacity:0.4;" />
    <path clip-path="url(#p61c8d1d66e)" d="M 191.76029 75.369854  L 202.125272 61.890832  L 167.577819 17.713284  z " style="fill:#69cd5b;fill-opacity:0.4;" />
    <path clip-path="url(#p61c8d1d66e)" d="M 202.125272 61.890832  L 207.161504 47.995304  L 167.577819 17.713284  z " style="fill:#6ece58;fill-opacity:0.4;" />
    <path clip-path="url(#p61c8d1d66e)" d="M 202.125272 61.890832  L 191.76029 75.369854  L 342.345216 111.362536  z " style="fill:#5cc863;fill-opacity:0.4;" />
    <path clip-path="url(#p61c8d1d66e)" d="M 361.25654 72.446376  L 202.125272 61.890832  L 342.345216 111.362536  z " style="fill:#60ca60;fill-opacity:0.4;" />
    <path clip-path="url(#p61c8d1d66e)" d="M 381.890631 7.564881  L 434.666993 2.219899  L 281.577055 9.670195  z " style="fill:#93d741;fill-opacity:0.4;" />
    <path clip-path="url(#p61c8d1d66e)" d="M 361.25654 72.446376  L 381.890631 7.564881  L 281.577055 9.670195  z " style="fill:#81d34d;fill-opacity:0.4;" />
    <path clip-path="url(#p61c8d1d66e)" d="M 381.890631 7.564881  L 361.25654 72.446376  L 434.666993 2.219899  z " style="fill:#89d548;fill-opacity:0.4;" />
    <path clip-path="url(#p61c8d1d66e)" d="M 244.657288 25.184488  L 361.25654 72.446376  L 281.577055 9.670195  z " style="fill:#7ad151;fill-opacity:0.4;" />
    <path clip-path="url(#p61c8d1d66e)" d="M 167.577819 17.713284  L 244.657288 25.184488  L 281.577055 9.670195  z " style="fill:#7fd34e;fill-opacity:0.4;" />
    <path clip-path="url(#p61c8d1d66e)" d="M 207.161504 47.995304  L 244.657288 25.184488  L 167.577819 17.713284  z " style="fill:#77d153;fill-opacity:0.4;" />
    <path clip-path="url(#p61c8d1d66e)" d="M 202.125272 61.890832  L 244.657288 25.184488  L 207.161504 47.995304  z " style="fill:#6ece58;fill-opacity:0.4;" />
    <path clip-path="url(#p61c8d1d66e)" d="M 244.657288 25.184488  L 202.125272 61.890832  L 361.25654 72.446376  z " style="fill:#6ece58;fill-opacity:0.4;" />
    <path clip-path="url(#p61c8d1d66e)" d="M 115.65831 594.985519  L 154.229419 550.298396  L 146.627195 531.83419  z " style="fill:#34608d;fill-opacity:0.4;" />
    <path clip-path="url(#p61c8d1d66e)" d="M 160.082002 575.224945  L 154.229419 550.298396  L 115.65831 594.985519  z " style="fill:#355e8d;fill-opacity:0.4;" />
    <path clip-path="url(#p61c8d1d66e)" d="M 154.229419 550.298396  L 164.22519 521.079472  L 146.627195 531.83419  z " style="fill:#31668e;fill-opacity:0.4;" />
    <path clip-path="url(#p61c8d1d66e)" d="M 164.22519 521.079472  L 154.229419 550.298396  L 314.652037 537.455404  z " style="fill:#2f6b8e;fill-opacity:0.4;" />
    <path clip-path="url(#p61c8d1d66e)" d="M 154.229419 550.298396  L 160.082002 575.224945  L 314.652037 537.455404  z " style="fill:#31688e;fill-opacity:0.4;" />
    <path clip-path="url(#p61c8d1d66e)" d="M 606.717033 50.373778  L 629.580651 0  L 573.375079 0  z " style="fill:#addc30;fill-opacity:0.4;" />
    <path clip-path="url(#p61c8d1d66e)" d="M 683.391223 0  L 629.580651 0  L 606.717033 50.373778  z " style="fill:#b5de2b;fill-opacity:0.4;" />
    <path clip-path="url(#p61c8d1d66e)" d="M 838.971317 28.897353  L 786.075459 79.019516  L 849.590421 103.456978  z " style="fill:#bddf26;fill-opacity:0.4;" />
    <path clip-path="url(#p61c8d1d66e)" d="M 777.606733 69.488451  L 786.075459 79.019516  L 838.971317 28.897353  z " style="fill:#c0df25;fill-opacity:0.4;" />
    <path clip-path="url(#p61c8d1d66e)" d="M 786.075459 79.019516  L 846.191344 147.374081  L 849.590421 103.456978  z " style="fill:#aadc32;fill-opacity:0.4;" />
    <path clip-path="url(#p61c8d1d66e)" d="M 786.075459 79.019516  L 777.606733 69.488451  L 606.717033 50.373778  z " style="fill:#aadc32;fill-opacity:0.4;" />
    <path clip-path="url(#p61c8d1d66e)" d="M 817.624009 27.692726  L 777.606733 69.488451  L 838.971317 28.897353  z " style="fill:#cae11f;fill-opacity:0.4;" />
    <path clip-path="url(#p61c8d1d66e)" d="M 817.624009 27.692726  L 786.392768 23.149075  L 777.606733 69.488451  z " style="fill:#c8e020;fill-opacity:0.4;" />
    <path clip-path="url(#p61c8d1d66e)" d="M 817.624009 27.692726  L 838.971317 28.897353  L 757.91408 0  z " style="fill:#d5e21a;fill-opacity:0.4;" />
    <path clip-path="url(#p61c8d1d66e)" d="M 786.392768 23.149075  L 817.624009 27.692726  L 757.91408 0  z " style="fill:#d2e21b;fill-opacity:0.4;" />
    <path clip-path="url(#p61c8d1d66e)" d="M 705.047896 0  L 786.392768 23.149075  L 757.91408 0  z " style="fill:#d0e11c;fill-opacity:0.4;" />
    <path clip-path="url(#p61c8d1d66e)" d="M 786.392768 23.149075  L 705.047896 0  L 777.606733 69.488451  z " style="fill:#c5e021;fill-opacity:0.4;" />
    <path clip-path="url(#p61c8d1d66e)" d="M 705.047896 0  L 683.391223 0  L 606.717033 50.373778  z " style="fill:#bade28;fill-opacity:0.4;" />
    <path clip-path="url(#p61c8d1d66e)" d="M 777.606733 69.488451  L 705.047896 0  L 606.717033 50.373778  z " style="fill:#b2dd2d;fill-opacity:0.4;" />
    <path clip-path="url(#p61c8d1d66e)" d="M 633.188584 165.680686  L 606.717033 50.373778  L 535.382981 125.691849  z " style="fill:#77d153;fill-opacity:0.4;" />
    <path clip-path="url(#p61c8d1d66e)" d="M 633.188584 165.680686  L 786.075459 79.019516  L 606.717033 50.373778  z " style="fill:#8ed645;fill-opacity:0.4;" />
    <path clip-path="url(#p61c8d1d66e)" d="M 786.075459 79.019516  L 633.188584 165.680686  L 846.191344 147.374081  z " style="fill:#90d743;fill-opacity:0.4;" />
    <path clip-path="url(#p61c8d1d66e)" d="M 846.191344 147.374081  L 633.188584 165.680686  L 787.053048 226.854517  z " style="fill:#7ad151;fill-opacity:0.4;" />
    <path clip-path="url(#p61c8d1d66e)" d="M 633.188584 165.680686  L 644.693121 250.622052  L 787.053048 226.854517  z " style="fill:#5cc863;fill-opacity:0.4;" />
    <path clip-path="url(#p61c8d1d66e)" d="M 633.188584 165.680686  L 478.17909 234.467739  L 644.693121 250.622052  z " style="fill:#48c16e;fill-opacity:0.4;" />
    <path clip-path="url(#p61c8d1d66e)" d="M 462.561527 162.894239  L 633.188584 165.680686  L 535.382981 125.691849  z " style="fill:#5ec962;fill-opacity:0.4;" />
    <path clip-path="url(#p61c8d1d66e)" d="M 478.17909 234.467739  L 633.188584 165.680686  L 462.561527 162.894239  z " style="fill:#4cc26c;fill-opacity:0.4;" />
   </g>
   <g id="line2d_1">
    <path clip-path="url(#p61c8d1d66e)" d="M 399.215468 420.056398  L 294.30596 391.178218  M 361.25654 72.446376  L 434.666993 2.219899  M 361.25654 72.446376  L 470.243175 147.812691  M 1069.057069 277.750251  L 1047.373561 285.147797  M 207.161504 47.995304  L 167.577819 17.713284  M 844.056125 348.787506  L 1047.373561 285.147797  M 844.056125 348.787506  L 777.108172 394.575334  M 1072.891316 384.639682  L 1047.373561 285.147797  M 689.777486 504.118474  L 569.781096 500.202148  M 689.777486 504.118474  L 777.108172 394.575334  M 917.818287 368.062543  L 876.138265 447.113942  M 917.818287 368.062543  L 1047.373561 285.147797  M 917.818287 368.062543  L 844.056125 348.787506  M 1057.395708 141.371777  L 1080.593537 185.267926  M 836.064321 567.094159  L 769.924879 614.136368  M 836.064321 567.094159  L 689.777486 504.118474  M 1055.587334 396.763276  L 1072.891316 384.639682  M 538.958856 482.540384  L 569.781096 500.202148  M 538.958856 482.540384  L 399.215468 420.056398  M 538.958856 482.540384  L 777.108172 394.575334  M 538.958856 482.540384  L 689.777486 504.118474  M 261.635525 220.400063  L 339.758836 248.358043  M 550.40828 297.888043  L 584.276111 308.38093  M 1103.697849 269.702582  L 1069.057069 277.750251  M 1103.697849 269.702582  L 1080.593537 185.267926  M 606.717033 50.373778  L 434.666993 2.219899  M 606.717033 50.373778  L 786.075459 79.019516  M 261.459817 184.020855  L 261.635525 220.400063  M 983.488315 374.838317  L 1047.373561 285.147797  M 983.488315 374.838317  L 1072.891316 384.639682  M 983.488315 374.838317  L 917.818287 368.062543  M 983.488315 374.838317  L 1055.587334 396.763276  M 441.208047 573.597321  L 569.781096 500.202148  M 441.208047 573.597321  L 376.770014 611.451738  M 441.208047 573.597321  L 538.958856 482.540384  M 995.851018 115.566244  L 1080.593537 185.267926  M 995.851018 115.566244  L 1057.395708 141.371777  M 995.851018 115.566244  L 919.019644 40.985223  M 849.590421 103.456978  L 786.075459 79.019516  M 849.590421 103.456978  L 919.019644 40.985223  M 849.590421 103.456978  L 995.851018 115.566244  M 462.561527 162.894239  L 470.243175 147.812691  M 462.561527 162.894239  L 261.459817 184.020855  M 644.693121 250.622052  L 584.276111 308.38093  M 644.693121 250.622052  L 787.053048 226.854517  M 644.693121 250.622052  L 550.40828 297.888043  M 343.413102 257.658296  L 339.758836 248.358043  M 343.413102 257.658296  L 261.635525 220.400063  M 490.379719 299.023239  L 550.40828 297.888043  M 490.379719 299.023239  L 343.413102 257.658296  M 560.712795 324.070219  L 777.108172 394.575334  M 560.712795 324.070219  L 584.276111 308.38093  M 560.712795 324.070219  L 550.40828 297.888043  M 560.712795 324.070219  L 490.379719 299.023239  M 1056.913324 477.65569  L 1055.587334 396.763276  M 1056.913324 477.65569  L 1058.984083 484.698256  M 470.268314 332.395825  L 343.413102 257.658296  M 470.268314 332.395825  L 490.379719 299.023239  M 470.268314 332.395825  L 560.712795 324.070219  M 81.234177 270.79362  L 261.635525 220.400063  M 81.234177 270.79362  L 16.018981 266.386365  M 81.234177 270.79362  L 57.251734 348.175565  M 1137.049112 512.510681  L 966.523264 532.254757  M 1137.049112 512.510681  L 1058.984083 484.698256  M 244.657288 25.184488  L 167.577819 17.713284  M 244.657288 25.184488  L 361.25654 72.446376  M 244.657288 25.184488  L 207.161504 47.995304  M 814.411095 263.756598  L 1047.373561 285.147797  M 814.411095 263.756598  L 844.056125 348.787506  M 814.411095 263.756598  L 787.053048 226.854517  M 814.411095 263.756598  L 644.693121 250.622052  M 438.741973 234.096158  L 339.758836 248.358043  M 438.741973 234.096158  L 462.561527 162.894239  M 438.741973 234.096158  L 343.413102 257.658296  M 438.741973 234.096158  L 490.379719 299.023239  M 578.797712 589.814088  L 689.777486 504.118474  M 578.797712 589.814088  L 551.941914 600.406122  M 342.345216 111.362536  L 470.243175 147.812691  M 342.345216 111.362536  L 361.25654 72.446376  M 342.345216 111.362536  L 261.459817 184.020855  M 342.345216 111.362536  L 462.561527 162.894239  M 202.125272 61.890832  L 167.577819 17.713284  M 202.125272 61.890832  L 361.25654 72.446376  M 202.125272 61.890832  L 207.161504 47.995304  M 202.125272 61.890832  L 244.657288 25.184488  M 202.125272 61.890832  L 342.345216 111.362536  M 677.738683 637.285672  L 578.797712 589.814088  M 426.265548 620.700082  L 376.770014 611.451738  M 426.265548 620.700082  L 441.208047 573.597321  M 191.76029 75.369854  L 167.577819 17.713284  M 191.76029 75.369854  L 261.459817 184.020855  M 191.76029 75.369854  L 342.345216 111.362536  M 191.76029 75.369854  L 202.125272 61.890832  M 1043.656759 495.460166  L 966.523264 532.254757  M 1043.656759 495.460166  L 1058.984083 484.698256  M 1043.656759 495.460166  L 1056.913324 477.65569  M 1043.656759 495.460166  L 1137.049112 512.510681  M 469.163433 342.688218  L 294.30596 391.178218  M 469.163433 342.688218  L 399.215468 420.056398  M 469.163433 342.688218  L 560.712795 324.070219  M 469.163433 342.688218  L 470.268314 332.395825  M 956.429588 458.779061  L 876.138265 447.113942  M 956.429588 458.779061  L 917.818287 368.062543  M 956.429588 458.779061  L 1055.587334 396.763276  M 956.429588 458.779061  L 966.523264 532.254757  M 956.429588 458.779061  L 983.488315 374.838317  M 956.429588 458.779061  L 1056.913324 477.65569  M 956.429588 458.779061  L 1043.656759 495.460166  M 200.250469 351.123266  L 294.30596 391.178218  M 200.250469 351.123266  L 57.251734 348.175565  M 200.250469 351.123266  L 81.234177 270.79362  M 1039.598396 262.480873  L 1047.373561 285.147797  M 1039.598396 262.480873  L 1069.057069 277.750251  M 1039.598396 262.480873  L 1080.593537 185.267926  M 1039.598396 262.480873  L 787.053048 226.854517  M 1039.598396 262.480873  L 1103.697849 269.702582  M 1039.598396 262.480873  L 814.411095 263.756598  M 475.33056 385.138193  L 399.215468 420.056398  M 475.33056 385.138193  L 777.108172 394.575334  M 475.33056 385.138193  L 538.958856 482.540384  M 475.33056 385.138193  L 560.712795 324.070219  M 475.33056 385.138193  L 469.163433 342.688218  M 355.373759 442.014582  L 294.30596 391.178218  M 355.373759 442.014582  L 399.215468 420.056398  M 478.17909 234.467739  L 550.40828 297.888043  M 478.17909 234.467739  L 462.561527 162.894239  M 478.17909 234.467739  L 644.693121 250.622052  M 478.17909 234.467739  L 490.379719 299.023239  M 478.17909 234.467739  L 438.741973 234.096158  M 916.150484 624.002348  L 836.064321 567.094159  M 916.150484 624.002348  L 966.523264 532.254757  M 846.191344 147.374081  L 1080.593537 185.267926  M 846.191344 147.374081  L 787.053048 226.854517  M 846.191344 147.374081  L 786.075459 79.019516  M 846.191344 147.374081  L 995.851018 115.566244  M 846.191344 147.374081  L 849.590421 103.456978  M 846.191344 147.374081  L 1039.598396 262.480873  M 281.577055 9.670195  L 434.666993 2.219899  M 281.577055 9.670195  L 167.577819 17.713284  M 281.577055 9.670195  L 361.25654 72.446376  M 281.577055 9.670195  L 244.657288 25.184488  M 777.606733 69.488451  L 786.075459 79.019516  M 777.606733 69.488451  L 606.717033 50.373778  M 777.606733 69.488451  L 786.392768 23.149075  M 279.999015 614.501072  L 376.770014 611.451738  M 279.999015 614.501072  L 160.082002 575.224945  M 817.624009 27.692726  L 786.392768 23.149075  M 817.624009 27.692726  L 777.606733 69.488451  M 26.306171 56.283645  L 167.577819 17.713284  M 26.306171 56.283645  L 191.76029 75.369854  M 838.971317 28.897353  L 786.075459 79.019516  M 838.971317 28.897353  L 919.019644 40.985223  M 838.971317 28.897353  L 849.590421 103.456978  M 838.971317 28.897353  L 777.606733 69.488451  M 838.971317 28.897353  L 817.624009 27.692726  M 314.652037 537.455404  L 376.770014 611.451738  M 314.652037 537.455404  L 160.082002 575.224945  M 314.652037 537.455404  L 441.208047 573.597321  M 314.652037 537.455404  L 279.999015 614.501072  M 371.636373 468.349477  L 399.215468 420.056398  M 371.636373 468.349477  L 538.958856 482.540384  M 371.636373 468.349477  L 441.208047 573.597321  M 371.636373 468.349477  L 355.373759 442.014582  M 371.636373 468.349477  L 314.652037 537.455404  M 565.174026 563.296196  L 569.781096 500.202148  M 565.174026 563.296196  L 689.777486 504.118474  M 565.174026 563.296196  L 441.208047 573.597321  M 565.174026 563.296196  L 578.797712 589.814088  M 850.387664 557.070324  L 689.777486 504.118474  M 850.387664 557.070324  L 836.064321 567.094159  M 850.387664 557.070324  L 966.523264 532.254757  M 850.387664 557.070324  L 916.150484 624.002348  M 657.389615 302.397019  L 777.108172 394.575334  M 657.389615 302.397019  L 584.276111 308.38093  M 657.389615 302.397019  L 844.056125 348.787506  M 657.389615 302.397019  L 644.693121 250.622052  M 657.389615 302.397019  L 560.712795 324.070219  M 657.389615 302.397019  L 814.411095 263.756598  M 269.018537 338.972659  L 294.30596 391.178218  M 269.018537 338.972659  L 261.635525 220.400063  M 269.018537 338.972659  L 343.413102 257.658296  M 269.018537 338.972659  L 470.268314 332.395825  M 269.018537 338.972659  L 81.234177 270.79362  M 269.018537 338.972659  L 469.163433 342.688218  M 269.018537 338.972659  L 200.250469 351.123266  M 535.382981 125.691849  L 434.666993 2.219899  M 535.382981 125.691849  L 470.243175 147.812691  M 535.382981 125.691849  L 361.25654 72.446376  M 535.382981 125.691849  L 606.717033 50.373778  M 535.382981 125.691849  L 462.561527 162.894239  M 21.410048 186.094853  L 261.635525 220.400063  M 21.410048 186.094853  L 261.459817 184.020855  M 21.410048 186.094853  L 16.018981 266.386365  M 21.410048 186.094853  L 81.234177 270.79362  M 21.410048 186.094853  L 191.76029 75.369854  M 289.144353 219.978788  L 339.758836 248.358043  M 289.144353 219.978788  L 261.635525 220.400063  M 289.144353 219.978788  L 261.459817 184.020855  M 289.144353 219.978788  L 462.561527 162.894239  M 289.144353 219.978788  L 438.741973 234.096158  M 733.185744 611.071993  L 769.924879 614.136368  M 733.185744 611.071993  L 689.777486 504.118474  M 733.185744 611.071993  L 836.064321 567.094159  M 733.185744 611.071993  L 578.797712 589.814088  M 733.185744 611.071993  L 677.738683 637.285672  M 828.1838 427.729616  L 876.138265 447.113942  M 828.1838 427.729616  L 777.108172 394.575334  M 828.1838 427.729616  L 844.056125 348.787506  M 828.1838 427.729616  L 689.777486 504.118474  M 828.1838 427.729616  L 917.818287 368.062543  M 633.188584 165.680686  L 787.053048 226.854517  M 633.188584 165.680686  L 786.075459 79.019516  M 633.188584 165.680686  L 606.717033 50.373778  M 633.188584 165.680686  L 462.561527 162.894239  M 633.188584 165.680686  L 644.693121 250.622052  M 633.188584 165.680686  L 478.17909 234.467739  M 633.188584 165.680686  L 846.191344 147.374081  M 633.188584 165.680686  L 535.382981 125.691849  M 205.646675 485.543741  L 294.30596 391.178218  M 205.646675 485.543741  L 200.250469 351.123266  M 205.646675 485.543741  L 355.373759 442.014582  M 205.646675 485.543741  L 314.652037 537.455404  M 205.646675 485.543741  L 371.636373 468.349477  M 154.229419 550.298396  L 160.082002 575.224945  M 154.229419 550.298396  L 146.627195 531.83419  M 154.229419 550.298396  L 314.652037 537.455404  M 1081.762953 18.498529  L 919.019644 40.985223  M 1081.762953 18.498529  L 995.851018 115.566244  M 164.22519 521.079472  L 146.627195 531.83419  M 164.22519 521.079472  L 314.652037 537.455404  M 164.22519 521.079472  L 205.646675 485.543741  M 164.22519 521.079472  L 154.229419 550.298396  M 115.65831 594.985519  L 160.082002 575.224945  M 115.65831 594.985519  L 6.266729 625.407267  M 115.65831 594.985519  L 146.627195 531.83419  M 115.65831 594.985519  L 154.229419 550.298396  M 885.168774 511.68883  L 876.138265 447.113942  M 885.168774 511.68883  L 689.777486 504.118474  M 885.168774 511.68883  L 966.523264 532.254757  M 885.168774 511.68883  L 956.429588 458.779061  M 885.168774 511.68883  L 850.387664 557.070324  M 885.168774 511.68883  L 828.1838 427.729616  M 532.427267 593.561497  L 551.941914 600.406122  M 532.427267 593.561497  L 441.208047 573.597321  M 532.427267 593.561497  L 578.797712 589.814088  M 532.427267 593.561497  L 426.265548 620.700082  M 532.427267 593.561497  L 565.174026 563.296196  M 381.890631 7.564881  L 434.666993 2.219899  M 381.890631 7.564881  L 361.25654 72.446376  M 381.890631 7.564881  L 281.577055 9.670195  M 1152 87.267064  L 1080.593537 185.267926  M 1152 87.267064  L 1057.395708 141.371777  M 1152 87.267064  L 1103.697849 269.702582  M 1152 87.267064  L 995.851018 115.566244  M 1152 87.267064  L 1081.762953 18.498529  M 0 194.02112  L 16.018981 266.386365  M 0 194.02112  L 21.410048 186.094853  M 0 323.14061  L 57.251734 348.175565  M 0 172.568992  L 191.76029 75.369854  M 0 172.568992  L 26.306171 56.283645  M 0 172.568992  L 21.410048 186.094853  M 0 172.568992  L 0 194.02112  M 0 436.11282  L 205.646675 485.543741  M 1152 477.499117  L 1072.891316 384.639682  M 1152 477.499117  L 1055.587334 396.763276  M 1152 477.499117  L 1058.984083 484.698256  M 1152 477.499117  L 1056.913324 477.65569  M 0 643.748718  L 6.266729 625.407267  M 0 280.157087  L 16.018981 266.386365  M 0 280.157087  L 81.234177 270.79362  M 0 404.956831  L 57.251734 348.175565  M 0 404.956831  L 200.250469 351.123266  M 0 404.956831  L 205.646675 485.543741  M 0 404.956831  L 0 436.11282  M 0 447.749222  L 146.627195 531.83419  M 0 447.749222  L 205.646675 485.543741  M 0 447.749222  L 164.22519 521.079472  M 0 447.749222  L 0 436.11282  M 0 13.527089  L 167.577819 17.713284  M 0 13.527089  L 26.306171 56.283645  M 1152 18.043324  L 1081.762953 18.498529  M 1152 18.043324  L 1152 87.267064  M 1152 493.481604  L 1058.984083 484.698256  M 1152 493.481604  L 1137.049112 512.510681  M 0 266.170618  L 16.018981 266.386365  M 0 266.170618  L 0 194.02112  M 0 266.170618  L 0 280.157087  M 1152 369.570745  L 1047.373561 285.147797  M 1152 369.570745  L 1069.057069 277.750251  M 1152 369.570745  L 1072.891316 384.639682  M 1152 369.570745  L 1103.697849 269.702582  M 1152 369.570745  L 1152 87.267064  M 1152 369.570745  L 1152 477.499117  M 0 610.785632  L 6.266729 625.407267  M 0 610.785632  L 146.627195 531.83419  M 0 610.785632  L 115.65831 594.985519  M 0 610.785632  L 0 643.748718  M 0 610.785632  L 0 447.749222  M 1152 485.031152  L 1058.984083 484.698256  M 1152 485.031152  L 1152 477.499117  M 1152 485.031152  L 1152 493.481604  M 0 317.068101  L 57.251734 348.175565  M 0 317.068101  L 81.234177 270.79362  M 0 317.068101  L 0 323.14061  M 0 317.068101  L 0 280.157087  M 0 53.837603  L 26.306171 56.283645  M 0 53.837603  L 0 172.568992  M 0 53.837603  L 0 13.527089  M 0 403.354268  L 57.251734 348.175565  M 0 403.354268  L 0 323.14061  M 0 403.354268  L 0 404.956831  M 573.375079 0  L 434.666993 2.219899  M 573.375079 0  L 606.717033 50.373778  M 930.294412 0  L 919.019644 40.985223  M 543.913315 648  L 551.941914 600.406122  M 543.913315 648  L 578.797712 589.814088  M 543.913315 648  L 677.738683 637.285672  M 543.913315 648  L 532.427267 593.561497  M 838.016887 648  L 769.924879 614.136368  M 838.016887 648  L 836.064321 567.094159  M 838.016887 648  L 916.150484 624.002348  M 809.224164 648  L 769.924879 614.136368  M 809.224164 648  L 677.738683 637.285672  M 809.224164 648  L 733.185744 611.071993  M 809.224164 648  L 543.913315 648  M 809.224164 648  L 838.016887 648  M 223.215194 648  L 160.082002 575.224945  M 223.215194 648  L 279.999015 614.501072  M 223.215194 648  L 115.65831 594.985519  M 629.580651 0  L 606.717033 50.373778  M 629.580651 0  L 573.375079 0  M 1055.189714 0  L 919.019644 40.985223  M 1055.189714 0  L 1081.762953 18.498529  M 1055.189714 0  L 930.294412 0  M 997.331536 648  L 966.523264 532.254757  M 997.331536 648  L 1137.049112 512.510681  M 997.331536 648  L 916.150484 624.002348  M 923.540966 0  L 919.019644 40.985223  M 923.540966 0  L 838.971317 28.897353  M 923.540966 0  L 930.294412 0  M 224.26883 648  L 279.999015 614.501072  M 224.26883 648  L 223.215194 648  M 423.111081 648  L 426.265548 620.700082  M 127.67708 648  L 6.266729 625.407267  M 127.67708 648  L 115.65831 594.985519  M 127.67708 648  L 0 643.748718  M 127.67708 648  L 223.215194 648  M 757.91408 0  L 786.392768 23.149075  M 757.91408 0  L 817.624009 27.692726  M 757.91408 0  L 838.971317 28.897353  M 757.91408 0  L 923.540966 0  M 294.302082 648  L 279.999015 614.501072  M 294.302082 648  L 224.26883 648  M 904.403427 648  L 916.150484 624.002348  M 904.403427 648  L 838.016887 648  M 904.403427 648  L 997.331536 648  M 705.047896 0  L 606.717033 50.373778  M 705.047896 0  L 786.392768 23.149075  M 705.047896 0  L 777.606733 69.488451  M 705.047896 0  L 757.91408 0  M 450.625773 648  L 426.265548 620.700082  M 450.625773 648  L 532.427267 593.561497  M 450.625773 648  L 543.913315 648  M 450.625773 648  L 423.111081 648  M 364.816536 648  L 376.770014 611.451738  M 364.816536 648  L 426.265548 620.700082  M 364.816536 648  L 279.999015 614.501072  M 364.816536 648  L 423.111081 648  M 364.816536 648  L 294.302082 648  M 683.391223 0  L 606.717033 50.373778  M 683.391223 0  L 629.580651 0  M 683.391223 0  L 705.047896 0  M 0 648  L 0 643.748718  M 0 648  L 127.67708 648  M 1152 648  L 1137.049112 512.510681  M 1152 648  L 1152 493.481604  M 1152 648  L 997.331536 648  M 0 0  L 434.666993 2.219899  M 0 0  L 167.577819 17.713284  M 0 0  L 281.577055 9.670195  M 0 0  L 0 13.527089  M 0 0  L 573.375079 0  M 1152 0  L 1081.762953 18.498529  M 1152 0  L 1152 18.043324  M 1152 0  L 1055.189714 0  L 1055.189714 0  " style="fill:none;stroke:#ffffff;stroke-linecap:square;stroke-opacity:0.5;stroke-width:0.5;" />
   </g>
   <g id="line2d_2" />
  </g>
 </g>
 <defs>
  <clipPath id="p61c8d1d66e">
   <rect height="648" width="1152" x="0" y="0" />
  </clipPath>
 </defs>
</svg>